<svg xmlns="http://www.w3.org/2000/svg" height="800" width="1200" viewBox="-98.7 -55.5 855.4 333"><path fill="none" d="M0 0h658v222H0z"/><path style="line-height:125%;-inkscape-font-specification:'Denmark Ultra-Light';text-align:start" d="M286.788 151.765h-34.455a36.4 36.4 0 01-10.37-1.517c-6.616-2.101-11.857-6.925-15.722-14.473-3.494-6.847-5.241-14.822-5.241-23.926 0-8.792 1.561-16.573 4.683-23.342 3.42-7.47 8.289-12.566 14.607-15.29 4.907-2.1 9.924-3.15 15.054-3.15h31.221v15.639h-32.448c-5.278 0-9.106 2.995-11.485 8.987-1.858 4.668-2.788 10.776-2.788 18.323 0 6.38 1.19 11.788 3.569 16.223 2.75 5.214 6.616 7.82 11.596 7.82l31.779-.117v14.823m57.383.35h-27.207c-6.616 0-12.377-2.957-17.283-8.87-4.832-5.991-7.248-12.877-7.248-20.658 0-8.481 2.639-15.795 7.917-21.942 5.352-6.225 11.299-9.337 17.84-9.337h25.87v12.488h-18.956c-2.379 0-4.423.233-6.133.7-1.635.39-3.16 1.206-4.572 2.451-2.601 2.335-3.902 5.486-3.902 9.454h33.451v12.605h-33.34c0 1.867.186 3.462.558 4.785.446 1.245 1.3 2.529 2.564 3.852a10.012 10.012 0 004.46 2.567c1.785.39 3.94.584 6.468.584h19.513v11.321m63.586-.35h-15.499v-39.8c0-1.01-.223-1.905-.669-2.683-.446-.856-1.078-1.673-1.896-2.451-1.486-1.323-3.196-1.984-5.129-1.985H369.4v46.919h-15.5V91.308h29.66c5.278 0 9.107.311 11.486.933 3.716.934 6.69 2.996 8.92 6.186 2.527 3.735 3.791 7.82 3.791 12.255v41.083m44.515-47.852H437.22v27.427c0 2.49.818 4.552 2.453 6.186 1.858 1.634 4.312 2.451 7.36 2.451h4.571v11.788H437.22c-4.312 0-7.991-1.634-11.04-4.902-1.783-1.945-2.935-4.085-3.456-6.42-.52-2.333-.78-5.096-.78-8.286v-28.244h-9.813V91.308h9.813V70.066h15.276v21.242h15.053v12.605m90.994 6.886c0 15.873-4.2 27.233-12.6 34.08-6.84 5.524-16.8 8.287-29.884 8.287-14.496 0-25.2-3.19-32.113-9.57-7.583-7.004-11.374-18.247-11.374-33.73 0-12.684 3.382-22.565 10.147-29.646 7.36-7.703 18.361-11.554 33.006-11.554 16.13 0 27.504 3.696 34.12 11.087 5.798 6.536 8.697 16.885 8.698 31.046m-19.848-.467c0-8.014-1.822-14.395-5.464-19.14-4.089-5.292-10.147-7.937-18.175-7.937-7.88 0-13.827 2.84-17.841 8.52-3.345 4.746-5.018 10.932-5.018 18.557 0 8.792 1.338 15.29 4.014 19.491 3.717 5.836 10.593 8.753 20.629 8.753 8.474 0 14.42-2.84 17.84-8.52 2.677-4.435 4.015-11.01 4.015-19.724m109.102 16.106c0 7.159-2.267 13.189-6.802 18.09-4.534 4.903-10.295 7.354-17.283 7.354l-55.195-.117v-14.706h45.494c3.048 0 5.612-.74 7.694-2.217 2.379-1.712 3.568-4.046 3.568-7.003 0-6.925-4.683-10.388-14.05-10.388h-22.97c-6.616 0-12.414-2.14-17.394-6.419-4.98-4.28-7.471-9.726-7.471-16.34 0-7.314 2.416-13.227 7.248-17.74 4.906-4.59 11.336-6.886 19.29-6.886h52.742v14.006h-46.498c-2.081 0-4.2.933-6.355 2.8-2.082 1.79-3.123 3.93-3.123 6.42 0 2.801 1.004 5.174 3.011 7.12 2.081 1.867 4.572 2.8 7.47 2.8h25.313c7.88 0 14.05 2.14 18.51 6.42 4.534 4.201 6.801 9.803 6.801 16.806" font-weight="200" font-size="72.672" font-family="Denmark"/><path style="marker:none" d="M97.064 105.272l6.17 6.133-6.17 6.134H53.639v20.438l-26.483-26.572 26.483-26.123v19.99z" overflow="visible" fill="#932279" fill-rule="evenodd"/><path style="marker:none" d="M116.728 98.064l-6.134 6.17-6.133-6.17V54.638H84.023l26.571-26.483 26.124 26.483h-19.99z" overflow="visible" fill="#efa724" fill-rule="evenodd"/><path style="marker:none" d="M123.936 117.728l-6.17-6.134 6.17-6.133h43.425V85.023l26.483 26.571-26.483 26.124v-19.99z" overflow="visible" fill="#262577" fill-rule="evenodd"/><path style="marker:none" d="M104.272 124.936l6.133-6.17 6.134 6.17v43.425h20.438l-26.572 26.484-26.123-26.484h19.99z" overflow="visible" fill="#9ccd2a" fill-rule="evenodd"/><g stroke="#fff" stroke-width="3.543"><path d="M671.984 2285.79h49.607v49.606h-49.607z" fill="#9ccd2a" transform="matrix(1.06366 0 0 1.06367 -662.683 -2378.238)"/><path d="M732.22 2285.79h49.607v49.606h-49.606z" fill="#932279" transform="matrix(1.06366 0 0 1.06367 -662.683 -2378.238)"/><path d="M732.22 2346.026h49.607v49.606h-49.606z" fill="#efa724" transform="matrix(1.06366 0 0 1.06367 -662.683 -2378.238)"/><path d="M671.984 2346.026h49.607v49.606h-49.607z" fill="#262577" transform="matrix(1.06366 0 0 1.06367 -662.683 -2378.238)"/></g><path transform="scale(1.06366 1.06367) rotate(-45 -1028.126 -605.158)" d="M-784.629 642.409h49.607v49.606h-49.607zm60.237 0h49.606v49.606h-49.606z" fill="none" stroke="#fff" stroke-width="3.543"/><path d="M-15.378 1009.068L19.7 973.99l35.077 35.077-35.077 35.077z" fill="none" stroke="#fff" stroke-width="3.543" transform="matrix(1.06366 0 0 1.06367 134.851 -961.813)"/><path transform="scale(1.06366 1.06367) rotate(-45 -1028.126 -605.158)" d="M-784.629 702.645h49.607v49.607h-49.607z" fill="none" stroke="#fff" stroke-width="3.543"/></svg>