<?xml version="1.0" encoding="utf-8"?>
<!-- Generator: Adobe Illustrator 25.0.1, SVG Export Plug-In . SVG Version: 6.00 Build 0)  -->
<svg version="1.0" id="Layer_1" xmlns="http://www.w3.org/2000/svg" xmlns:xlink="http://www.w3.org/1999/xlink" x="0px" y="0px"
	 viewBox="0 0 881.2 562.2" style="enable-background:new 0 0 881.2 562.2;" xml:space="preserve">
<style type="text/css">
	.st0{fill:#4C4C4C;}
	.st1{fill:#8DC63F;}
	.st2{fill:#F9E988;}
	.st3{fill:#FFFFFF;}
	.st4{fill:#8BC53F;}
	.st5{fill:#009345;}
	.st6{fill:#58595B;}
	.st7{fill:none;}
</style>
<path class="st0" d="M378.4,260.7c-2-7.6-6.9-13.2-16.5-13.2c-14.2,0-20.1,12.5-20.1,25.2c0,12.7,5.9,25.2,20.1,25.2
	c10.3,0,16-7.7,16.9-17.3h11.3c-0.9,15.9-12.2,26.8-28.2,26.8c-19.9,0-31.8-15.8-31.8-34.7S342,238,361.9,238
	c14.9,0.1,26.7,8.4,28.1,22.6H378.4z"/>
<path class="st0" d="M397,281.9c0-14.7,8.8-25.2,24.2-25.2s24.2,10.6,24.2,25.2c0,14.7-8.8,25.3-24.2,25.3S397,296.6,397,281.9z
	 M434.8,281.9c0-8.3-4.2-16.9-13.6-16.9s-13.6,8.6-13.6,16.9s4.2,17,13.6,17S434.8,290.2,434.8,281.9z"/>
<path class="st0" d="M454.5,239.6h10.6v10h-10.6V239.6z M454.5,257.9h10.6v48h-10.6V257.9z"/>
<path class="st0" d="M476.6,257.9h10v7.1l0.2,0.2c3.1-5.3,8.8-8.6,14.9-8.5c10.4,0,17,5.6,17,16.3v33h-10.6v-30.2
	c-0.2-7.5-3.2-10.8-9.4-10.8c-7,0-11.6,5.6-11.6,12.6v28.3h-10.6V257.9z"/>
<path class="st0" d="M589.2,305.9h-7.4l-1.8-7.8c-6.2,7-11.9,9.4-20,9.4c-19.9,0-31.8-15.8-31.8-34.7S540.1,238,560,238
	c14.5,0,26.6,7.7,28.4,22.6h-11.3c-1.1-8.7-8.7-13.2-17.1-13.2c-14.2,0-20.2,12.5-20.2,25.2c0,12.7,6,25.2,20.2,25.2
	c11.9,0.2,18.4-7,18.6-18.2H561V271h28.2V305.9z"/>
<path class="st0" d="M608.6,284.6c0,7.5,4.1,14.2,12.9,14.2c6.1,0,9.8-2.7,11.7-8h10c-2.3,10.5-11.2,16.3-21.7,16.3
	c-15,0-23.5-10.5-23.5-25.2c0-13.6,8.9-25.3,23.2-25.3c15.1,0,24.4,13.7,22.7,28L608.6,284.6z M633.3,277.6
	c-0.4-6.7-4.9-12.7-12.1-12.7c-7.3,0-12.3,5.6-12.6,12.7H633.3z"/>
<path class="st0" d="M684.4,274c-0.8-5.9-5.1-9-11-9c-5.5,0-13.2,2.9-13.2,17.5c0,8,3.5,16.4,12.7,16.4c6.1,0,10.4-4.1,11.4-11h10.6
	c-2,12.4-9.7,19.3-22,19.3c-15,0-23.3-10.7-23.3-24.8c0-14.5,7.9-25.8,23.7-25.8c11.1,0,20.6,5.6,21.6,17.4H684.4z"/>
<path class="st0" d="M703.8,239.6h10.6v37.7l19.2-19.4h13l-18.4,17.6l20.2,30.3h-13l-14.7-23.3l-6.3,6.1v17.2h-10.6V239.6z"/>
<path class="st0" d="M751.2,281.9c0-14.7,8.8-25.2,24.2-25.2s24.2,10.6,24.2,25.2c0,14.7-8.8,25.3-24.2,25.3
	S751.2,296.6,751.2,281.9z M789.1,281.9c0-8.3-4.2-16.9-13.7-16.9s-13.6,8.6-13.6,16.9s4.2,17,13.6,17S789.1,290.2,789.1,281.9z"/>
<path class="st1" d="M271.4,280.7c0.2,52.4-42.1,95.1-94.5,95.3s-95.1-42.1-95.3-94.5c-0.2-52.4,42.1-95.1,94.5-95.3
	C228.5,186,271.2,228.3,271.4,280.7z"/>
<path id="_Clipping_Path_" class="st2" d="M264.2,280.7c0.2,48.5-38.9,87.9-87.4,88.2S88.9,330,88.7,281.5
	c-0.2-48.5,38.9-87.9,87.4-88.2C224.5,193.1,264,232.2,264.2,280.7C264.2,280.7,264.2,280.7,264.2,280.7z"/>
<path id="_Path_" class="st3" d="M178.1,199c5.6-1,11.3-1,16.9,0c5.6,0.9,11.1,2.7,16.1,5.4c5,2.8,9.3,6.5,13.6,10s8.6,7.1,12.7,11
	c4.2,3.9,7.8,8.2,10.8,13c3.1,4.8,5.6,9.9,7.6,15.2c3.8,10.7,4.8,22.2,3.1,33.4h-0.6c-1.6-10.7-4.4-21.2-8.2-31.4
	c-1.8-5-4-9.9-6.4-14.6c-2.6-4.7-5.4-9.3-8.5-13.7c-3.2-4.5-7-8.4-11.5-11.6c-4.4-3.2-9.6-5.2-14.5-7.2s-9.9-3.9-15.1-5.4
	s-10.4-2.6-15.9-3.7L178.1,199z"/>
<path class="st4" d="M221,249.7c-6.4-1.9-13-4.5-19.7-7.1c-0.4-1.7-1.9-3.8-4.9-6.3c-4.4-3.8-12.6-3.7-19.7-2
	c-7.8-1.8-15.6-2.5-23-0.7c-60.7,16.7-26.2,57.5-48.5,98.5c3.2,6.7,37.3,46,86.8,35.4c0,0-16.9-40.6,21.2-60.1
	C244.2,291.5,266.6,262.2,221,249.7z"/>
<path class="st3" d="M228.5,276.4c0,2-1.6,3.7-3.6,3.7c-2,0-3.7-1.6-3.7-3.6c0-2,1.6-3.7,3.6-3.7c0,0,0,0,0,0
	C226.8,272.7,228.5,274.4,228.5,276.4C228.5,276.4,228.5,276.4,228.5,276.4z"/>
<path class="st5" d="M176.8,234.3c4.4,0.3,20.4,5.5,24.5,8.3C197.9,232.6,186.3,231.3,176.8,234.3z"/>
<path class="st3" d="M181,259.5c0,9.4-7.6,17-17,17s-17-7.6-17-17c0-9.4,7.6-17,17-17l0,0C173.4,242.5,181,250.1,181,259.5z"/>
<path class="st6" d="M176,259.6c0,6.6-5.3,11.9-11.9,12c-6.6,0-11.9-5.3-11.9-11.9c0-6.6,5.3-11.9,11.9-11.9c0,0,0,0,0,0
	C170.6,247.7,176,253,176,259.6z"/>
<path class="st4" d="M242.2,283.9c-13.8,9.7-29.4,17-51.6,17c-10.4,0-12.5-11-19.3-5.6c-3.6,2.8-16,9-25.9,8.6s-26-6.3-30.5-27.4
	c-1.8,21.2-2.7,36.7-10.6,54.6c15.8,25.3,53.5,44.9,87.8,36.5c-3.7-25.7,18.8-50.8,31.4-63.7C228.2,298.9,237.5,290.9,242.2,283.9
	L242.2,283.9z"/>
<path class="st6" d="M241.7,284.5c-4.4,3.8-9.3,6.9-14.5,9.3c-5.2,2.5-10.7,4.5-16.3,5.9c-5.6,1.5-11.5,2.5-17.4,2
	c-5.9-0.5-12-2.6-15.9-7l0.2-0.2c4.8,3.1,10.4,4.2,15.9,4.4c5.6,0.2,11.2-0.3,16.7-1.4c5.6-1.2,11-2.8,16.2-5
	c5.3-2,10.3-4.8,14.9-8.2L241.7,284.5z"/>
<rect x="59.2" y="166.2" class="st7" width="762.8" height="229.8"/>
</svg>
