<?xml version="1.0" standalone="no"?>
<!DOCTYPE svg PUBLIC "-//W3C//DTD SVG 20010904//EN"
 "http://www.w3.org/TR/2001/REC-SVG-20010904/DTD/svg10.dtd">
<svg version="1.0" xmlns="http://www.w3.org/2000/svg"
 width="410.000000pt" height="123.000000pt" viewBox="0 0 410.000000 123.000000"
 preserveAspectRatio="xMidYMid meet">

<g transform="translate(0.000000,123.000000) scale(0.100000,-0.100000)"
fill="#000000" stroke="none">
<path d="M245 1225 c-5 -2 -22 -6 -37 -9 -78 -17 -128 -109 -128 -233 l0 -63
-35 0 -35 0 0 -60 0 -60 35 0 35 0 0 -255 0 -255 75 0 75 0 0 255 0 255 85 0
c47 0 85 2 85 4 0 2 -10 29 -21 60 l-22 56 -63 0 -64 0 0 65 c0 57 3 69 25 90
26 27 73 33 119 15 24 -9 26 -6 46 47 17 45 18 58 8 64 -31 20 -150 35 -183
24z"/>
<path d="M1623 1213 l-73 -4 0 -176 0 -176 -22 20 c-48 44 -90 58 -168 57 -91
-1 -133 -17 -199 -79 -84 -79 -119 -185 -101 -302 27 -166 144 -274 297 -274
74 0 164 36 185 74 12 21 13 20 18 -18 l5 -40 68 -3 67 -3 0 466 c0 256 -1
464 -2 463 -2 -1 -36 -4 -75 -5z m-119 -440 l41 -29 3 -124 c2 -122 2 -126
-23 -152 -62 -67 -163 -82 -234 -35 -100 66 -114 248 -24 329 61 56 166 60
237 11z"/>
<path d="M2850 1152 c-149 -39 -260 -144 -311 -294 -17 -51 -20 -80 -17 -158
3 -81 8 -105 35 -163 56 -118 169 -214 291 -247 70 -18 181 -14 253 10 163 55
268 178 300 352 33 179 -65 375 -229 461 -112 58 -205 69 -322 39z m225 -146
c51 -23 112 -82 139 -134 8 -16 20 -59 27 -95 10 -56 10 -76 -4 -134 -70 -283
-420 -319 -540 -54 -33 72 -31 198 5 273 32 69 95 132 151 152 66 23 163 20
222 -8z"/>
<path d="M3707 1159 c-124 -29 -191 -109 -191 -229 0 -123 61 -185 253 -257
126 -47 169 -91 157 -161 -10 -67 -64 -102 -156 -102 -70 0 -107 13 -170 62
l-46 35 -53 -47 -53 -47 44 -36 c183 -150 466 -129 566 42 23 39 27 58 27 121
0 63 -4 82 -27 120 -38 65 -116 116 -238 155 -124 39 -176 94 -147 153 37 75
140 89 243 33 l59 -32 42 48 c24 26 43 51 43 55 0 16 -109 68 -172 83 -74 16
-123 18 -181 4z"/>
<path d="M2055 931 c-87 -23 -179 -101 -215 -184 -70 -159 -5 -369 135 -437
88 -43 229 -44 309 -3 33 17 126 101 126 114 0 4 -20 22 -45 39 l-46 32 -44
-41 c-51 -47 -75 -55 -153 -49 -82 6 -140 56 -157 136 l-7 32 231 0 231 0 6
26 c4 14 3 48 0 77 -15 112 -75 196 -170 238 -53 23 -152 33 -201 20z m145
-130 c35 -18 66 -59 72 -96 1 -11 -1 -21 -5 -22 -4 -2 -73 -3 -153 -3 l-145 0
6 23 c30 95 140 144 225 98z"/>
<path d="M425 903 c4 -10 14 -37 22 -60 l15 -43 78 0 79 0 -21 60 -20 60 -80
0 c-72 0 -79 -2 -73 -17z"/>
<path d="M865 908 c-2 -7 -34 -98 -70 -202 -36 -104 -67 -191 -70 -194 -5 -6
-5 -6 -48 123 l-34 100 -76 3 c-43 2 -77 0 -77 -3 0 -4 35 -98 77 -210 l77
-205 -51 -134 -50 -134 65 -26 c36 -14 66 -25 67 -23 2 2 296 762 331 855 l24
62 -80 0 c-56 0 -82 -4 -85 -12z"/>
</g>
</svg>
