<?xml version="1.0" standalone="no"?>
<!DOCTYPE svg PUBLIC "-//W3C//DTD SVG 20010904//EN"
 "http://www.w3.org/TR/2001/REC-SVG-20010904/DTD/svg10.dtd">
<svg version="1.0" xmlns="http://www.w3.org/2000/svg"
 width="250.000000pt" height="250.000000pt" viewBox="0 0 250.000000 250.000000"
 preserveAspectRatio="xMidYMid meet">

<g transform="translate(0.000000,250.000000) scale(0.100000,-0.100000)"
fill="#000000" stroke="none">
<path d="M330 1250 l0 -920 920 0 920 0 0 920 0 920 -920 0 -920 0 0 -920z
m557 558 l113 -113 -112 -112 -113 -113 -110 0 -110 0 108 108 c59 59 107 112
107 117 0 5 -48 58 -107 117 l-108 108 110 0 110 0 112 -112z m485 5 c60 -59
108 -112 108 -118 0 -5 -48 -58 -107 -117 l-108 -108 -115 0 -115 0 113 112
112 113 -112 112 -113 113 115 0 115 0 107 -107z m485 -5 l113 -113 -112 -112
-113 -113 -110 0 -110 0 108 108 c59 59 107 112 107 117 0 5 -48 58 -107 117
l-108 108 110 0 110 0 112 -112z m-847 -563 c40 -21 65 -89 57 -156 -8 -64
-28 -96 -73 -115 -29 -12 -39 -12 -68 0 -45 19 -65 51 -73 115 -7 60 16 132
50 156 27 19 70 19 107 0z m-350 -62 c18 -75 25 -84 34 -41 3 17 11 49 17 70
9 37 11 38 54 38 l45 0 0 -140 0 -140 -35 0 -35 0 -1 63 -1 62 -15 -63 c-14
-59 -17 -63 -41 -60 -24 3 -29 10 -42 63 l-15 60 -3 -63 -3 -63 -32 3 -32 3
-3 124 c-1 69 0 131 3 139 3 9 18 12 47 10 l42 -3 16 -62z m509 17 c6 -28 11
-59 11 -70 0 -10 4 -21 9 -24 4 -3 14 28 20 69 l12 75 40 0 c21 0 39 -3 39 -7
0 -5 -15 -66 -33 -138 l-33 -130 -44 0 -44 0 -26 106 c-46 181 -46 169 -1 169
39 0 39 0 50 -50z m229 -87 l-3 -138 -35 0 -35 0 -3 138 -3 137 41 0 41 0 -3
-137z m187 107 c0 -21 -6 -26 -35 -30 -48 -7 -54 -37 -8 -42 29 -3 33 -6 33
-33 0 -26 -3 -29 -30 -30 -23 0 -31 -5 -33 -22 -3 -21 1 -23 37 -23 40 0 41
-1 41 -35 l0 -36 -72 3 -73 3 -3 138 -3 138 73 -3 c70 -3 73 -4 73 -28z m-907
-351 c40 -14 59 -58 42 -98 -10 -25 -9 -34 4 -53 23 -32 20 -62 -8 -95 -22
-26 -30 -28 -93 -28 l-68 0 -3 129 c-1 72 0 136 2 143 7 16 80 17 124 2z m251
-5 c31 -22 51 -73 51 -129 0 -91 -42 -145 -113 -145 -47 0 -81 31 -96 86 -30
106 17 204 96 204 21 0 49 -7 62 -16z m148 -21 l15 -38 19 38 c16 30 25 37 49
37 38 0 38 -13 3 -85 l-27 -55 32 -65 c18 -36 32 -70 32 -75 0 -6 -16 -10 -35
-10 -33 0 -38 4 -55 42 l-19 42 -16 -42 c-15 -38 -21 -42 -51 -42 -19 0 -34 4
-34 9 0 5 14 39 32 76 l31 68 -31 62 c-17 35 -28 66 -25 69 4 3 19 6 35 6 24
0 32 -6 45 -37z m877 11 c22 -21 23 -211 2 -240 -14 -18 -31 -19 -315 -22
l-301 -3 -25 25 c-23 23 -25 32 -25 118 0 149 -28 138 340 138 267 0 311 -2
324 -16z"/>
<path d="M943 1178 c-31 -39 -18 -138 17 -138 35 0 48 99 17 138 -5 6 -13 12
-17 12 -4 0 -12 -6 -17 -12z"/>
<path d="M620 790 c0 -13 7 -20 20 -20 13 0 20 7 20 20 0 13 -7 20 -20 20 -13
0 -20 -7 -20 -20z"/>
<path d="M620 685 c0 -18 5 -25 19 -25 24 0 33 13 25 34 -10 27 -44 20 -44 -9z"/>
<path d="M852 798 c-17 -17 -16 -113 3 -128 23 -19 43 -5 51 35 13 69 -21 126
-54 93z"/>
<path d="M1390 736 l0 -83 25 5 c18 3 25 11 25 27 0 17 8 25 27 30 40 10 53
24 53 56 0 35 -24 49 -84 49 l-46 0 0 -84z m80 29 c0 -8 -7 -15 -15 -15 -8 0
-15 7 -15 15 0 8 7 15 15 15 8 0 15 -7 15 -15z"/>
<path d="M1550 741 c0 -69 2 -79 19 -84 25 -6 31 0 31 35 0 37 14 36 30 -2 7
-16 15 -30 19 -31 58 -8 61 -4 34 43 -14 23 -15 32 -5 35 6 3 12 18 12 33 0
37 -23 50 -89 50 l-51 0 0 -79z m90 24 c0 -8 -9 -15 -20 -15 -11 0 -20 7 -20
15 0 8 9 15 20 15 11 0 20 -7 20 -15z"/>
<path d="M1746 799 c-21 -16 -26 -29 -26 -64 0 -35 5 -48 26 -64 15 -12 39
-21 54 -21 15 0 39 9 54 21 21 16 26 29 26 64 0 35 -5 48 -26 64 -15 12 -39
21 -54 21 -15 0 -39 -9 -54 -21z m79 -64 c0 -36 -2 -40 -25 -40 -20 0 -26 6
-28 28 -5 42 5 59 30 55 20 -3 23 -9 23 -43z"/>
</g>
</svg>
