<?xml version="1.0" standalone="no"?>
<!DOCTYPE svg PUBLIC "-//W3C//DTD SVG 20010904//EN"
 "http://www.w3.org/TR/2001/REC-SVG-20010904/DTD/svg10.dtd">
<svg version="1.0" xmlns="http://www.w3.org/2000/svg"
 width="465.000000pt" height="230.000000pt" viewBox="0 0 465.000000 230.000000"
 preserveAspectRatio="xMidYMid meet">

<g transform="translate(0.000000,230.000000) scale(0.100000,-0.100000)"
fill="#000000" stroke="none">
<path d="M2094 1981 c-17 -10 -37 -33 -44 -51 -13 -32 -10 -74 17 -211 4 -22
-1 -30 -40 -52 -58 -35 -120 -105 -135 -155 -7 -22 -12 -62 -12 -89 0 -135 85
-229 260 -289 83 -28 302 -26 384 4 85 32 138 65 183 116 112 127 73 321 -83
412 -24 14 -44 32 -44 39 0 7 7 50 16 95 19 100 13 130 -32 170 -50 43 -101
42 -152 -4 l-37 -34 -3 -96 -4 -96 -44 0 -44 0 0 75 c0 42 -6 90 -14 109 -30
71 -107 97 -172 57z m101 -27 c32 -12 45 -59 45 -159 l0 -95 85 0 85 0 0 105
c0 99 2 107 25 130 15 16 36 25 55 25 35 0 80 -38 80 -68 0 -17 -17 -112 -36
-199 -3 -19 4 -27 46 -48 112 -57 156 -132 148 -251 -4 -70 -32 -115 -100
-164 -152 -110 -454 -110 -606 0 -68 49 -96 94 -100 164 -2 34 1 81 8 104 14
52 70 111 139 146 l49 25 -14 73 c-29 148 -29 163 -1 192 25 25 59 32 92 20z"/>
<path d="M2130 1521 c-16 -31 -12 -79 10 -101 25 -25 32 -25 55 0 21 24 24 82
5 105 -18 21 -57 19 -70 -4z"/>
<path d="M2442 1520 c-18 -30 -15 -77 8 -100 25 -25 32 -25 55 0 22 24 25 81
6 104 -18 22 -54 20 -69 -4z"/>
<path d="M2945 749 c-64 -18 -101 -76 -90 -140 8 -47 28 -65 117 -109 80 -39
99 -60 79 -84 -18 -21 -79 -21 -132 1 -41 16 -42 16 -60 -8 -10 -13 -19 -31
-19 -40 0 -45 182 -76 266 -44 55 21 77 53 77 111 0 58 -25 85 -123 133 -56
27 -76 42 -78 58 -5 34 35 49 90 34 66 -18 67 -18 89 16 l20 32 -25 16 c-49
32 -146 43 -211 24z"/>
<path d="M222 737 c-9 -11 -12 -68 -10 -213 l3 -199 60 0 60 0 3 61 3 61 72 6
c80 7 112 25 139 78 34 66 14 150 -45 193 -24 18 -46 22 -151 24 -98 3 -124 1
-134 -11z m196 -93 c49 -34 15 -104 -50 -104 -28 0 -28 1 -28 60 0 59 0 60 28
60 15 0 38 -7 50 -16z"/>
<path d="M2112 738 c-14 -14 -17 -384 -3 -406 5 -9 25 -12 62 -10 l54 3 3 58
3 58 44 -61 45 -60 65 0 c36 0 65 3 65 6 0 3 -26 38 -59 77 l-59 72 54 60 c29
33 54 66 54 73 0 8 -19 12 -62 12 l-63 0 -40 -56 -40 -56 -5 118 -5 119 -50 3
c-30 2 -55 -2 -63 -10z"/>
<path d="M684 611 c-55 -25 -87 -71 -92 -136 -6 -71 12 -122 52 -146 38 -23
106 -25 149 -3 21 12 32 13 35 5 2 -6 25 -11 53 -11 l49 0 0 139 0 139 -47 16
c-62 21 -148 20 -199 -3z m134 -133 c-2 -32 -9 -63 -15 -69 -18 -18 -65 -13
-80 7 -37 51 19 142 79 126 18 -4 20 -11 16 -64z"/>
<path d="M1125 615 c-19 -10 -31 -12 -33 -6 -2 6 -26 11 -53 11 l-50 0 3 -147
3 -148 55 0 55 0 3 85 c3 124 6 132 45 128 l32 -3 5 -105 5 -105 58 -3 57 -3
0 125 c0 116 -2 127 -23 152 -30 34 -115 44 -162 19z"/>
<path d="M1440 608 c-114 -58 -116 -224 -5 -278 51 -25 139 -26 195 -4 44 18
50 36 21 73 -15 20 -21 22 -39 12 -33 -18 -97 -14 -115 7 -22 24 -22 71 -1
101 14 19 23 22 63 19 25 -3 53 -8 61 -11 10 -5 21 3 33 24 23 42 23 45 -23
63 -58 23 -137 21 -190 -6z"/>
<path d="M1804 612 c-93 -44 -126 -149 -78 -244 28 -54 121 -76 184 -43 18 9
31 11 35 5 3 -6 28 -10 56 -10 l49 0 0 135 0 134 -32 17 c-51 26 -164 29 -214
6z m124 -141 l-3 -66 -33 -3 c-42 -4 -62 12 -62 52 0 44 21 79 50 86 45 12 51
3 48 -69z"/>
<path d="M2545 610 c-55 -27 -78 -69 -78 -142 0 -71 19 -103 84 -136 37 -20
55 -23 116 -19 44 2 82 10 98 21 24 16 25 18 9 47 -12 23 -19 29 -32 23 -9 -5
-43 -8 -76 -9 -50 0 -61 3 -73 23 l-15 22 105 0 c119 0 132 7 122 63 -10 51
-38 91 -78 110 -48 23 -132 22 -182 -3z m126 -60 c10 -6 19 -17 19 -25 0 -11
-13 -15 -55 -15 -52 0 -55 1 -45 19 16 30 47 38 81 21z"/>
<path d="M3792 609 c-59 -29 -85 -70 -90 -140 -7 -99 40 -159 128 -159 22 0
55 7 73 16 21 12 32 13 35 5 2 -6 25 -11 53 -11 l49 0 0 139 0 139 -47 16
c-66 23 -149 21 -201 -5z m138 -123 c0 -72 -28 -103 -77 -85 -28 10 -39 59
-21 96 15 32 51 53 79 46 16 -4 19 -15 19 -57z"/>
<path d="M4150 612 l-45 -18 0 -199 0 -200 55 0 55 0 3 62 3 61 52 -5 c110
-11 167 43 167 159 0 61 -3 71 -31 102 -17 20 -47 40 -67 46 -55 15 -141 11
-192 -8z m156 -97 c33 -51 -2 -134 -50 -119 -30 10 -36 23 -36 87 l0 57 35 0
c26 0 39 -6 51 -25z"/>
<path d="M3220 602 c0 -10 7 -38 14 -63 8 -24 27 -83 41 -131 l26 -88 49 0
c42 0 49 3 54 23 3 13 13 41 22 63 l16 39 22 -60 21 -60 49 0 49 0 43 145 c24
80 44 146 44 148 0 1 -25 2 -55 2 l-54 0 -10 -38 c-6 -21 -14 -52 -17 -70 -4
-18 -10 -32 -13 -32 -4 0 -15 24 -25 54 -11 36 -23 57 -36 61 -37 12 -55 -4
-75 -60 -10 -30 -21 -52 -24 -49 -3 3 -13 33 -21 67 l-16 62 -52 3 c-45 3 -52
1 -52 -16z"/>
</g>
</svg>
