<?xml version="1.0" standalone="no"?>
<!DOCTYPE svg PUBLIC "-//W3C//DTD SVG 20010904//EN"
 "http://www.w3.org/TR/2001/REC-SVG-20010904/DTD/svg10.dtd">
<svg version="1.0" xmlns="http://www.w3.org/2000/svg"
 width="256.000000pt" height="256.000000pt" viewBox="0 0 256.000000 256.000000"
 preserveAspectRatio="xMidYMid meet">

<g transform="translate(0.000000,256.000000) scale(0.100000,-0.100000)"
fill="#000000" stroke="none">
<path d="M1245 2493 c-97 -72 -226 -207 -289 -302 -72 -108 -144 -268 -179
-398 -30 -113 -31 -126 -31 -313 1 -186 2 -201 31 -312 17 -64 50 -156 72
-204 42 -88 513 -917 537 -943 28 -30 317 40 462 113 l62 31 -78 135 c-254
437 -463 803 -491 859 -97 192 -96 453 3 650 77 152 184 258 338 336 118 59
209 78 352 74 132 -5 132 -6 20 77 -188 140 -422 228 -654 249 l-76 7 -79 -59z"/>
<path d="M855 2471 c-90 -33 -229 -108 -313 -170 -498 -370 -659 -1034 -385
-1586 151 -303 426 -542 741 -644 93 -30 219 -57 228 -48 3 3 -89 169 -204
369 -115 199 -228 399 -250 443 -167 335 -193 751 -70 1119 56 167 170 370
274 485 51 56 50 57 -21 32z"/>
<path d="M1886 1994 c-188 -45 -346 -205 -391 -396 -70 -296 134 -592 439
-640 342 -53 651 256 598 598 -18 114 -67 212 -149 293 -136 136 -317 189
-497 145z"/>
<path d="M2475 903 c-57 -49 -154 -102 -243 -130 -90 -29 -264 -41 -352 -25
-30 6 -56 9 -58 7 -6 -5 263 -465 272 -465 4 0 49 42 100 93 95 96 179 213
239 332 34 68 90 215 85 220 -2 2 -21 -13 -43 -32z"/>
</g>
</svg>
