<?xml version="1.0" standalone="no"?>
<!DOCTYPE svg PUBLIC "-//W3C//DTD SVG 20010904//EN"
 "http://www.w3.org/TR/2001/REC-SVG-20010904/DTD/svg10.dtd">
<svg version="1.0" xmlns="http://www.w3.org/2000/svg"
 width="2560.000000pt" height="471.000000pt" viewBox="0 0 2560.000000 471.000000"
 preserveAspectRatio="xMidYMid meet">

<g transform="translate(0.000000,471.000000) scale(0.100000,-0.100000)"
fill="#000000" stroke="none">
<path d="M0 3595 l0 -1115 1115 0 1115 0 0 1115 0 1115 -1115 0 -1115 0 0
-1115z"/>
<path d="M2480 3595 l0 -1115 1115 0 1115 0 0 1115 0 1115 -1115 0 -1115 0 0
-1115z"/>
<path d="M14830 3345 l0 -585 -64 65 c-76 77 -186 134 -308 159 -89 18 -290
21 -388 5 -88 -14 -218 -59 -287 -100 -73 -44 -193 -157 -249 -235 -94 -131
-167 -327 -193 -518 -16 -112 -14 -375 4 -483 63 -386 272 -639 595 -719 112
-28 374 -25 485 4 159 43 290 127 378 242 l26 35 1 -132 0 -133 240 0 240 0 0
1490 0 1490 -240 0 -240 0 0 -585z m-400 -726 c201 -32 351 -187 396 -409 21
-105 15 -398 -11 -500 -43 -173 -152 -322 -279 -385 -242 -120 -523 -29 -639
207 -62 127 -72 179 -71 393 0 214 13 285 79 423 95 202 300 307 525 271z"/>
<path d="M23870 3771 c-161 -110 -389 -225 -650 -328 l-120 -47 0 -198 c0
-224 -7 -209 88 -182 149 43 391 153 471 215 13 11 28 19 32 19 5 0 9 -510 9
-1150 l0 -1150 235 0 235 0 0 1440 0 1440 -107 -1 -108 0 -85 -58z"/>
<path d="M25332 3795 c-112 -88 -415 -244 -669 -345 l-133 -53 0 -203 0 -202
83 25 c178 54 340 126 446 197 29 20 55 36 57 36 2 0 4 -517 4 -1150 l0 -1150
240 0 240 0 0 1440 0 1440 -112 -1 c-113 0 -113 0 -156 -34z"/>
<path d="M10375 3802 c-70 -24 -117 -63 -151 -124 -25 -46 -29 -64 -29 -128 1
-90 22 -139 86 -193 134 -115 347 -80 437 71 23 40 27 58 27 122 -1 90 -21
135 -88 197 -75 69 -182 90 -282 55z"/>
<path d="M6170 3683 c287 -1034 743 -2676 751 -2700 l11 -33 293 0 294 0 10
38 c272 1024 563 2117 565 2120 4 4 -2 26 307 -1151 l264 -1007 289 2 290 3
371 1370 c204 754 375 1382 379 1398 l6 27 -249 0 -250 0 -9 -32 c-5 -18 -125
-522 -268 -1120 -142 -598 -260 -1085 -263 -1082 -3 3 -134 505 -291 1117
l-286 1112 -266 3 -266 2 -6 -24 c-17 -67 -597 -2173 -602 -2186 -6 -13 -7
-13 -12 0 -3 8 -130 508 -282 1110 l-277 1095 -261 3 -261 2 19 -67z"/>
<path d="M16515 2999 c-235 -32 -442 -128 -582 -271 -198 -199 -284 -443 -284
-801 1 -346 89 -589 282 -777 225 -219 627 -310 1020 -230 490 100 769 482
769 1052 0 527 -251 888 -699 1005 -80 21 -124 26 -266 28 -93 2 -201 -1 -240
-6z m338 -404 c85 -22 154 -61 212 -119 125 -125 189 -366 165 -623 -19 -201
-71 -334 -170 -434 -150 -151 -417 -182 -637 -74 -121 60 -201 166 -255 335
-21 67 -23 94 -23 260 0 146 4 199 18 250 58 213 181 349 362 401 77 23 249
25 328 4z"/>
<path d="M21576 3000 c-192 -31 -335 -97 -446 -209 -115 -115 -164 -234 -164
-396 0 -213 99 -386 283 -495 39 -23 148 -77 243 -119 262 -117 325 -165 347
-261 25 -113 -35 -207 -153 -242 -68 -21 -277 -15 -369 10 -91 25 -220 84
-294 135 l-53 36 0 -233 0 -234 28 -10 c44 -18 161 -49 252 -69 116 -24 392
-25 501 -1 188 42 300 98 405 202 114 114 155 221 155 405 -1 282 -113 418
-478 577 -249 109 -312 150 -360 232 -39 66 -39 151 -1 209 42 64 115 95 236
101 129 6 239 -20 381 -91 58 -28 109 -53 114 -55 4 -2 6 97 5 219 l-3 223
-46 18 c-92 34 -202 50 -364 53 -88 2 -187 0 -219 -5z"/>
<path d="M12114 2986 c-97 -18 -137 -32 -219 -75 -68 -35 -172 -127 -228 -201
l-26 -35 -1 148 0 147 -230 0 -230 0 0 -1010 0 -1010 230 0 230 0 0 608 c0
674 -1 663 66 801 110 225 382 331 589 231 94 -46 168 -154 202 -295 14 -60
17 -158 20 -707 l4 -638 236 0 235 0 -5 703 c-5 763 -7 802 -64 962 -67 188
-195 310 -380 361 -79 22 -334 28 -429 10z"/>
<path d="M10230 1960 l0 -1010 230 0 230 0 0 1010 0 1010 -230 0 -230 0 0
-1010z"/>
<path d="M17831 2928 c5 -18 137 -469 293 -1003 l283 -970 251 -3 250 -2 14
47 c8 27 104 355 213 730 109 375 201 680 204 677 4 -3 94 -330 202 -727 l196
-722 259 -3 259 -2 284 992 c157 546 287 999 289 1006 3 9 -45 12 -219 12
l-224 0 -185 -775 c-102 -426 -188 -775 -191 -775 -3 0 -95 349 -204 775
l-199 775 -230 -2 -231 -3 -212 -740 c-253 -884 -233 -818 -239 -813 -3 3
-329 1325 -379 1536 l-5 22 -244 0 -244 0 9 -32z"/>
<path d="M0 1115 l0 -1115 1115 0 1115 0 0 1115 0 1115 -1115 0 -1115 0 0
-1115z"/>
<path d="M2480 1115 l0 -1115 1115 0 1115 0 0 1115 0 1115 -1115 0 -1115 0 0
-1115z"/>
</g>
</svg>
