<svg xmlns="http://www.w3.org/2000/svg" height="800" width="1200" viewBox="-38.47635 -9.025 333.4617 54.15"><path d="M38.409 0c-.2.1-.4.3-.3.5v6.3h-9.5c-2.1 0-3.7.5-5 1.7-1.2 1.1-1.8 2.8-1.8 4.9v9c0 .2-.1.5-.1.8 0 1.3.4 2.5 1.1 3.5.7 1.1 1.7 1.8 2.9 2.1.7.2 1.6.3 2.9.3h4.7c2.3 0 4-.5 5.3-1.6 1.2-1.1 1.8-2.7 1.8-4.8V.7c0-.3-.2-.5-.5-.5h-1.3c-.1-.2-.2-.2-.2-.2M.509 6.8c-.3.1-.4.4-.3.6 0 .1.1.1.1.2l8 10.3-8.2 10.2c-.2.2-.1.5.1.7.1.1.2.1.3.1h1.7c.2 0 .3-.1.4-.2l7.1-9 7.1 9c.1.1.2.2.4.2h1.7c.3 0 .5-.2.5-.5 0-.1 0-.2-.1-.3l-8.1-10.3 7.9-10.3c.2-.2.1-.5-.1-.7-.1-.1-.2-.1-.3-.1h-1.7c-.2 0-.3.1-.4.2l-6.9 9-7-9c-.1-.1-.2-.2-.4-.2h-1.6c-.1.1-.1.1-.2.1m44.8 0c-.2.1-.4.3-.3.5v1.3c0 .3.2.5.5.5h11.6c1.4 0 2.4.3 3 .9.6.6 1 1.6 1 2.9v.9h-10.1c-1.8 0-3.3.6-4.4 1.7-1.1 1.1-1.6 2.6-1.6 4.4v3.2c0 1.5.5 2.8 1.3 3.8 1.1 1.3 2.8 2 4.8 2h6.3c1.9 0 3.4-.6 4.4-1.7 1-1.1 1.5-2.7 1.5-4.5v-9.5c0-2.1-.6-3.7-1.8-4.8-1.2-1.1-2.9-1.6-5.2-1.6h-11m-16.9 2.3h9.6v13.3c0 1.3-.4 2.2-1.1 2.9-.7.7-1.7 1.1-3.2 1.3h-5.3c-1.8 0-3-.4-3.6-1-.6-.6-1-1.7-1-3.5v-8.7c0-1.7.6-2.9 1.9-3.8.6-.2 1.5-.5 2.7-.5m22.4 7h10.2v7c0 1.3-.3 2.2-.9 2.8-.6.6-1.4.9-2.7.9h-6.5c-.1 0-.3 0-.6-.1-1.1-.2-1.9-.6-2.4-1.2s-.8-1.4-.8-2.5v-3.1c0-1.1.3-2 .8-2.6.5-.6 1.2-1 2.3-1.2h.6"/><path d="M156.809.1c-.2 0-.4.2-.4.5v28c0 .3.2.5.5.5h1.3c.3 0 .5-.2.5-.5V.6c0-.3-.2-.5-.5-.5h-1.4c.1 0 .1 0 0 0m-71.6 0c-.2 0-.4.2-.4.5v6.3h-9.6c-2.1 0-3.7.6-4.9 1.7-1.2 1.1-1.8 2.8-1.8 4.9v9.8c0 1.3.4 2.4 1.1 3.4.7 1 1.7 1.7 2.9 2.1.7.2 1.6.3 2.9.3h4.7c2.3 0 4-.5 5.2-1.6 1.2-1.1 1.8-2.7 1.8-4.8V.6c0-.3-.2-.5-.5-.5h-1.4c.1 0 .1 0 0 0m13.4 6.8h-.9c-2 .2-3.6.8-4.6 1.8-1 1.1-1.4 2.7-1.4 4.8v9c0 .1-.1.3-.1.6 0 1.9.7 3.5 2.2 4.5 1.3 1 2.9 1.4 4.9 1.4h10.9c.3 0 .5-.2.5-.5v-1.3c0-.3-.2-.5-.5-.5h-11.2c-1.7 0-2.8-.4-3.4-1-.5-.5-.9-1.7-1-3.5l-.1-.6 15.9-6.9c.2-.1.3-.2.3-.4v-.6c0-2.3-.4-4.1-1.4-5.2-1-1.1-2.7-1.7-4.9-1.7l-5.2.1m42.8 0h-.9c-2 .2-3.6.8-4.6 1.8-1 1.1-1.4 2.7-1.4 4.8v9.6c0 1.9.7 3.5 2.2 4.5 1.3 1 2.9 1.4 4.9 1.4h10.9c.3 0 .5-.2.5-.5v-1.3c0-.3-.2-.5-.5-.5h-11.2c-1.7 0-2.8-.4-3.4-1-.5-.5-.9-1.7-1.1-3.5v-.6l15.9-6.9c.2-.1.3-.2.3-.4v-.6c0-2.3-.4-4.1-1.4-5.2-1-1.1-2.7-1.7-4.9-1.7l-5.3.1m74.6 0h-.9c-2 .2-3.6.8-4.6 1.8-1 1.1-1.4 2.7-1.4 4.8v9.6c0 1.9.7 3.5 2.2 4.5 1.3 1 2.9 1.4 4.9 1.4h10.9c.3 0 .5-.2.5-.5v-1.3c0-.3-.2-.5-.5-.5h-11.2c-1.7 0-2.8-.4-3.4-1-.5-.5-.9-1.7-1.1-3.5v-.6l15.9-6.9c.2-.1.3-.2.3-.4v-.6c0-2.3-.4-4.1-1.4-5.2-1-1.1-2.7-1.7-4.9-1.7l-5.3.1m-104.8 0c-.3 0-.4.2-.4.5v.2l9.5 20.4v.1c.2.3.3.5.3.6.2.3.6.6 1 .6.3 0 .6-.2.8-.4.2-.2.3-.5.5-.8l9.6-20.4c.1-.2 0-.5-.2-.6h-1.6c-.2 0-.3.1-.4.3l-8.7 18.6-8.6-18.6c-.1-.2-.2-.3-.4-.3l-1.4-.2m58.8 0c-1.9 0-3.4.4-4.5 1.3-.8.7-1.5 1.5-1.8 2.4-.2.7-.3 1.7-.3 3v9.7c0 2.4 1.2 4.2 3.4 5.2.8.3 1.8.5 3.3.5h5.1c2 0 3.7-.5 4.8-1.6 1.1-1.1 1.6-2.7 1.6-4.8v-9c0-2.2-.5-3.8-1.6-5-1.1-1.2-2.7-1.7-4.8-1.7h-5.2m22.6 0c-2.1 0-3.8.5-4.9 1.6-1.1 1.1-1.7 2.6-1.7 4.6v22.5c0 .3.2.5.5.5h1.2c.3 0 .5-.2.5-.5v-6.5h10c2.3 0 4.1-.9 5.3-2.7.6-.9.9-2.2.9-3.8v-9.5c0-2-.6-3.5-1.8-4.6-1.2-1-3-1.5-5.2-1.5l-4.8-.1m44.2 0h-.4c-1.8.2-3.2.8-4.1 1.9-.9 1.1-1.4 2.6-1.4 4.5v15.2c0 .3.2.5.5.5h1.3c.3 0 .5-.2.5-.5V13.3c0-1.4.3-2.4.8-3 .5-.7 1.4-1.1 2.5-1.2h2.2c.3 0 .5-.2.5-.5V7.3c0-.3-.2-.5-.5-.5l-1.9.1c.1 0 .1 0 0 0m9 0c-1.7 0-3.1.4-4.3 1.2-1.3.9-1.9 2.3-1.9 3.9v1.3c0 1.8.5 3.2 1.7 4.2 1.1.9 2.7 1.4 4.8 1.4h4.9c1.2 0 1.9.3 2.3.8.3.4.6 1.2.7 2.5l.1 1v.8c-.1 1-.4 1.7-.9 2.1-.5.4-1.3.7-2.4.7h-10.6c-.3 0-.5.2-.5.5v1.3c0 .3.2.5.5.5h10.5c2.3 0 4.1-.9 5-2.6.4-.8.6-1.9.6-3.2v-1c0-1.8-.4-3.2-1.3-4.1-.9-1-2.2-1.4-3.9-1.4h-5c-1.5 0-2.6-.2-3.2-.6-.8-.5-1.1-1.3-1.1-2.7v-1.3c0-1 .4-1.7 1.2-2.3.5-.4 1.4-.6 2.8-.6h10.2c.3 0 .5-.2.5-.5V7.5c0-.3-.2-.5-.5-.5l-10.2-.1m-146.9 2.2h4.3c1.6 0 2.8.3 3.5.9.7.6 1.1 1.4 1.2 2.7 0 0 0 .3-.1.5l-13.9 6.1v-6.2c0-1.6.4-2.6 1.3-3.2.6-.5 1.9-.8 3.7-.8m42.9 0h4.3c1.6 0 2.8.3 3.5.9.7.6 1.1 1.4 1.2 2.7v.5l-13.9 6.1v-6.2c0-1.6.4-2.6 1.3-3.2.6-.5 1.8-.8 3.6-.8m28.2 0h5c1.5 0 2.5.3 3.2 1 .7.7 1 1.7 1 3.1v9.9c0 1.8-.6 2.8-1.9 3.4-.4.2-1.2.3-2.3.3h-5c-1 0-1.6 0-1.9-.1-.9-.2-1.5-.6-2-1.2-.4-.6-.7-1.5-.7-2.6v-9.8c0-2 .6-3.1 2-3.8.5-.1 1.3-.2 2.6-.2m22.7 0h4.8c1.6 0 2.8.3 3.5 1 .7.7 1.1 1.6 1.1 3v9.6c0 1.5-.3 2.5-1 3.2-.6.7-1.6 1-3 1h-10V13.3c0-1.4.4-2.4 1.1-3.1.8-.7 1.9-1.1 3.5-1.1m23.6 0h4.3c1.6 0 2.8.3 3.5.9.7.6 1.1 1.4 1.2 2.7v.5l-13.9 6.1v-6.2c0-1.6.4-2.6 1.3-3.2.6-.5 1.8-.8 3.6-.8m-141.1 0h9.6v13.4c0 1.3-.4 2.2-1.1 2.9-.7.7-1.8 1.1-3.3 1.3h-5.3c-1.8 0-3-.4-3.6-1-.6-.6-1-1.8-1-3.6v-8.7c0-1.7.6-2.9 1.8-3.8.7-.2 1.7-.5 2.9-.5" fill="#f59812"/></svg>